{"title":"Stand Up Guys (2012) BRRip XviD-MeRCuRY","uid":8348912,"size":733086180,"categoryP":"video","categoryS":"movies","magnet":"?xt=urn:btih:761492bd1d34c0e990ae3e9df037a4ad6abf38c8&amp;dn=Stand+Up+Guys+%282012%29+BRRip+XviD-MeRCuRY&amp;tr=udp%3A%2F%2Ftracker.openbittorrent.com%3A80&amp;tr=udp%3A%2F%2Fopen.demonii.com%3A1337&amp;tr=udp%3A%2F%2Ftracker.coppersurfer.tk%3A6969&amp;tr=udp%3A%2F%2Fexodus.desync.com%3A6969","seeders":1,"leechers":0,"uploader":"sceneline","files":9,"time":1365275872,"description":"-\n &lt;a href=&quot;\nhttp://www.Speed.&quot; rel=&quot;nofollow&quot; target=&quot;_NEW&quot;&gt;\nhttp://www.Speed.&lt;/a&gt; Cd       the fast  and The Hottest Private Tracker on the net &lt;a href=&quot;\nhttp://www.Speed.&quot; rel=&quot;nofollow&quot; target=&quot;_NEW&quot;&gt;\nhttp://www.Speed.&lt;/a&gt; Cd\n\nPlease Seed back to make the speed Faster!!\n ............ NFO .............\n-\n &lt;a href=&quot;\nhttp://www.Speed.&quot; rel=&quot;nofollow&quot; target=&quot;_NEW&quot;&gt;\nhttp://www.Speed.&lt;/a&gt; CdGeneral\nComplete name                    : C:UsersAdministratorDesktopBeyazHDLBRRRipStand Up Guys (2012) BRRip XviD-MeRCuRYStand Up Guys (2012) BRRip XviD-MeRCuRY.avi\nFormat                           : AVI\nFormat/Info                      : Audio Video Interleave\nFile size                        : 698 MiB\nDuration                         : 1h 34mn\nOverall bit rate                 : 1 028 Kbps\n\nVideo\nID                               : 0\nFormat                           : MPEG-4 Visual\nFormat profile                   : Advanced Simple@L5\nFormat settings, BVOP            : 2\nFormat settings, QPel            : No\nFormat settings, GMC             : No warppoints\nFormat settings, Matrix          : Default (H.263)\nCodec ID                         : XVID\nCodec ID/Hint                    : XviD\nDuration                         : 1h 34mn\nBit rate                         : 894 Kbps\nWidth                            : 640 pixels\nHeight                           : 272 pixels\nDisplay aspect ratio             : 2.35:1\nFrame rate                       : 23.976 fps\nColor space                      : YUV\nChroma subsampling               : 4:2:0\nBit depth                        : 8 bits\nScan type                        : Progressive\nCompression mode                 : Lossy\nBits/(Pixel*Frame)               : 0.214\nStream size                      : 607 MiB (87%)\nWriting library                  : XviD 1.2.1 (UTC 2008-12-04)\n\nAudio\nID                               : 1\nFormat                           : MPEG Audio\nFormat version                   : Version 1\nFormat profile                   : Layer 3\nMode                             : Joint stereo\nMode extension                   : MS Stereo\nCodec ID                         : 55\nCodec ID/Hint                    : MP3\nDuration                         : 1h 34mn\nBit rate mode                    : Constant\nBit rate                         : 128 Kbps\nChannel(s)                       : 2 channels\nSampling rate                    : 48.0 KHz\nCompression mode                 : Lossy\nStream size                      : 86.9 MiB (12%)\nAlignment                        : Aligned on interleaves\nInterleave, duration             : 167 ms (4.00 video frames)\nInterleave, preload duration     : 216 ms\nTitle                            : Stand Up Guys 2012 720p\nWriting library                  : LAME3.99r\nEncoding settings                : -m j -V 4 -q 2 -lowpass 17 -b 128","torrent":{"xt":"urn:btih:761492bd1d34c0e990ae3e9df037a4ad6abf38c8","amp;dn":"Stand+Up+Guys+%282012%29+BRRip+XviD-MeRCuRY","amp;tr":["udp%3A%2F%2Ftracker.openbittorrent.com%3A80","udp%3A%2F%2Fopen.demonii.com%3A1337","udp%3A%2F%2Ftracker.coppersurfer.tk%3A6969","udp%3A%2F%2Fexodus.desync.com%3A6969"],"infoHash":"761492bd1d34c0e990ae3e9df037a4ad6abf38c8","infoHashBuffer":{"type":"Buffer","data":[118,20,146,189,29,52,192,233,144,174,62,157,240,55,164,173,106,191,56,200]},"announce":[],"urlList":[]}}